<?xml version="1.0" standalone="no"?>
<!DOCTYPE svg PUBLIC "-//W3C//DTD SVG 20010904//EN"
 "http://www.w3.org/TR/2001/REC-SVG-20010904/DTD/svg10.dtd">
<svg version="1.0" xmlns="http://www.w3.org/2000/svg"
 width="700.000000pt" height="700.000000pt" viewBox="0 0 700.000000 700.000000"
 preserveAspectRatio="xMidYMid meet">
<metadata>
Created by potrace 1.14, written by Peter Selinger 2001-2017
</metadata>
<g transform="translate(0.000000,700.000000) scale(0.100000,-0.100000)"
fill="#000000" stroke="none">
<path d="M3370 6984 c-192 -50 -347 -207 -397 -401 -3 -15 -8 -584 -9 -1263
-2 -679 -3 -1246 -4 -1260 l0 -25 -1245 2 c-1367 1 -1291 5 -1422 -60 -84 -41
-181 -134 -226 -217 -47 -87 -62 -151 -61 -265 1 -94 5 -120 28 -180 49 -127
141 -231 257 -290 128 -65 67 -63 1426 -63 679 -1 1237 -3 1240 -6 3 -3 5
-559 5 -1236 0 -1294 0 -1299 44 -1395 69 -151 200 -263 361 -308 33 -9 88
-14 145 -13 216 5 391 122 481 321 45 99 45 87 45 1390 0 680 2 1239 5 1241 3
3 574 6 1268 8 1165 2 1268 4 1309 19 191 73 316 206 364 388 16 62 14 225 -4
279 -57 171 -183 301 -351 362 l-64 23 -1258 2 c-693 1 -1261 4 -1264 7 -3 2
-5 563 -5 1246 0 1363 3 1287 -61 1419 -59 120 -192 229 -331 272 -59 18 -212
20 -276 3z"/>
</g>
</svg>
